PathFileType	4	(X/Y/Z)	/Users/itak/Documents/Research/Walk-IL/dataset/trc/00041_00004.trc
DataRate	CameraRate	NumFrames	NumMarkers	Units	OrigDataRate	OrigDataStartFrame	OrigNumFrames
100.000000	100.000000	4	53	mm	100.000000	346	555
Frame#	Time	RPSI			LPSI			L3			STRN			T10			C7			CLAV			RBAK			LBAK			LSHO			LUPA			LAEL			LAOL			LWTS			LWPS			LFRA			LIFD			LHPS			LHTS			RSHO			RUPA			RAEL			RAOL			RWTS			RWPS			RFRA			RIFD			RHTS			RHPS			RBHD			LFHD			RFHD			LBHD			LHIP			RHIP			RASI			LASI			LKNE			LTHI			LANK			LTIP			LTOE			LMT1			LMT5			LHEE			RKNE			RTHI			RTIP			RTOE			RMT1			RMT5			RANK			RHEE			
		X1	Y1	Z1	X2	Y2	Z2	X3	Y3	Z3	X4	Y4	Z4	X5	Y5	Z5	X6	Y6	Z6	X7	Y7	Z7	X8	Y8	Z8	X9	Y9	Z9	X10	Y10	Z10	X11	Y11	Z11	X12	Y12	Z12	X13	Y13	Z13	X14	Y14	Z14	X15	Y15	Z15	X16	Y16	Z16	X17	Y17	Z17	X18	Y18	Z18	X19	Y19	Z19	X20	Y20	Z20	X21	Y21	Z21	X22	Y22	Z22	X23	Y23	Z23	X24	Y24	Z24	X25	Y25	Z25	X26	Y26	Z26	X27	Y27	Z27	X28	Y28	Z28	X29	Y29	Z29	X30	Y30	Z30	X31	Y31	Z31	X32	Y32	Z32	X33	Y33	Z33	X34	Y34	Z34	X35	Y35	Z35	X36	Y36	Z36	X37	Y37	Z37	X38	Y38	Z38	X39	Y39	Z39	X40	Y40	Z40	X41	Y41	Z41	X42	Y42	Z42	X43	Y43	Z43	X44	Y44	Z44	X45	Y45	Z45	X46	Y46	Z46	X47	Y47	Z47	X48	Y48	Z48	X49	Y49	Z49	X50	Y50	Z50	X51	Y51	Z51	X52	Y52	Z52	X53	Y53	Z53	

347	3.46	-289.1604919433594	1042.7880859375	349.0615539550781	-177.1327209472656	1040.6455078125	228.7983856201172	-232.0042266845703	1099.543579101562	278.5589294433594	-83.21340942382812	1297.03466796875	438.0375671386719	-249.2461853027344	1243.760375976562	253.3429565429688	-208.2614135742188	1511.830200195312	277.3041687011719	-108.3527755737305	1422.864990234375	401.9001770019531	-302.9067993164062	1374.880859375	292.7699584960938	-147.3038024902344	1470.511596679688	200.4976806640625	-24.17700004577637	1479.16552734375	226.9062042236328	8.712607383728027	1353.695678710938	148.7777252197266	16.78229331970215	1138.511596679688	116.9991226196289	-87.08234405517578	1127.704467773438	144.4300994873047	31.40571212768555	876.7816162109375	195.1659240722656	2.480639457702637	871.516845703125	111.3135375976562	24.20532417297363	1022.194274902344	111.3409805297852	27.60622024536133	690.2001342773438	211.0573577880859	21.98589134216309	778.9191284179688	125.767822265625	50.21449661254883	781.72265625	191.5802001953125	-289.8566284179688	1497.916137695312	450.8897399902344	-353.1791381835938	1428.6953125	485.0949401855469	-403.8593444824219	1163.59619140625	467.2989196777344	-329.4597473144531	1134.432983398438	407.7296752929688	-291.74462890625	908.74267578125	554.6430053710938	-382.3992919921875	890.176025390625	547.5198974609375	-407.9231262207031	1086.3974609375	488.4127502441406	-259.0863037109375	725.8618774414062	563.00390625	-275.2446899414062	802.0092163085938	591.92041015625	-349.9966125488281	792.3170166015625	581.882568359375	-96.74922180175781	1699.612548828125	297.6282653808594	-164.3685760498047	1702.060913085938	505.4523620605469	-71.23915863037109	1710.238403320312	477.2295227050781	-232.6832122802734	1685.760498046875	344.8006286621094	-22.30314826965332	946.8958129882812	223.4129333496094	-275.0157470703125	920.7950439453125	495.8046569824219	-153.7971343994141	963.4522094726562	519.1610107421875	7.066650390625	995.8230590820312	350.8411865234375	70.68094635009766	534.6839599609375	392.9244995117188	53.29293441772461	656.6765747070312	314.4755554199219	66.18138122558594	35.04781723022461	328.4833374023438	71.40676879882812	287.3255004882812	334.9725036621094	106.3342361450195	36.90164184570312	553.5003662109375	66.57106781005859	45.01288223266602	507.2318725585938	140.3986511230469	35.4330940246582	429.1183471679688	-12.22586917877197	43.5155029296875	290.62939453125	-233.4438171386719	478.6270141601562	465.6990356445312	-250.2946166992188	752.9502563476562	502.3759155273438	-294.5403442382812	375.5921630859375	402.8866882324219	-343.8653564453125	37.81468200683594	174.0312347412109	-370.4264221191406	84.97141265869141	145.3935699462891	-434.1048278808594	59.81061553955078	215.1187438964844	-518.9234008789062	176.2492828369141	171.5112915039062	-527.2576293945312	232.0427398681641	126.5632171630859	
348	3.47	-282.8243408203125	1043.75048828125	352.6305236816406	-169.5286254882812	1041.93798828125	233.6050567626953	-224.9288024902344	1100.809692382812	282.6318969726562	-77.53559875488281	1298.294555664062	444.0921936035156	-241.0991058349609	1245.063598632812	257.401123046875	-200.3021240234375	1513.13818359375	281.5965881347656	-102.0740432739258	1424.13232421875	407.5263061523438	-295.3562622070312	1376.322021484375	296.010009765625	-138.4731903076172	1471.57421875	205.6202697753906	-15.65509223937988	1480.079711914062	233.6105499267578	18.39358329772949	1354.667358398438	155.9061126708984	27.29601097106934	1139.576904296875	124.1174774169922	-76.95834350585938	1128.539794921875	149.9844970703125	41.28178024291992	877.8711547851562	202.4811706542969	13.73395442962646	872.5474243164062	118.2011032104492	35.02855682373047	1023.239135742188	118.5271301269531	37.98976135253906	691.3504638671875	218.2474365234375	33.32098770141602	780.0217895507812	132.9107360839844	60.45841598510742	782.9343872070312	199.1538696289062	-284.0588989257812	1499.478393554688	454.1764221191406	-347.8742065429688	1430.415893554688	487.6990051269531	-398.9196166992188	1165.43017578125	469.7344055175781	-324.3369445800781	1136.09130859375	410.6997375488281	-288.649169921875	910.0473022460938	557.7974243164062	-379.3245544433594	891.8536376953125	549.74951171875	-403.4056396484375	1088.266235351562	490.7559814453125	-256.6292419433594	727.0541381835938	565.9629516601562	-272.7865905761719	803.1683959960938	594.9436645507812	-347.3749084472656	793.7290649414062	584.3764038085938	-89.32506561279297	1700.83251953125	302.76904296875	-158.8069458007812	1703.549438476562	509.9934387207031	-65.43544006347656	1711.735473632812	482.5843200683594	-225.6456909179688	1686.976806640625	348.7752075195312	-14.94163417816162	948.2438354492188	229.4398956298828	-269.8061218261719	921.770263671875	499.67529296875	-148.9151000976562	964.9496459960938	524.0455932617188	13.55713844299316	996.9412231445312	357.3246154785156	74.94664001464844	534.08984375	395.6820983886719	58.47451400756836	656.837890625	318.2684020996094	66.14118957519531	35.01577758789062	328.5242004394531	73.37383270263672	287.0635986328125	335.9791564941406	106.402717590332	36.92965698242188	553.4706420898438	66.67874145507812	45.10840606689453	507.1780395507812	140.4766082763672	35.33220672607422	429.0116882324219	-12.18525505065918	43.37402725219727	290.5525207519531	-222.5761871337891	479.3957824707031	478.3436584472656	-243.2845458984375	754.39404296875	509.2506713867188	-283.3404235839844	377.2389831542969	414.5061950683594	-339.9120178222656	37.1268196105957	180.2191009521484	-364.4446716308594	88.38982391357422	151.9284362792969	-429.9746398925781	64.89262390136719	220.0692443847656	-508.8971557617188	186.0848999023438	177.5710601806641	-514.5078125	242.5720672607422	133.2050170898438	
349	3.48	-276.54541015625	1044.72900390625	356.2062072753906	-162.1803894042969	1043.177978515625	238.3328247070312	-218.1196136474609	1102.093017578125	286.6225891113281	-72.03984832763672	1299.533813476562	450.1309814453125	-233.2043762207031	1246.391845703125	261.4161682128906	-192.4999542236328	1514.451538085938	285.9642639160156	-95.97132873535156	1425.372680664062	413.1615295410156	-287.9298400878906	1377.780151367188	299.2841796875	-129.8064422607422	1472.663940429688	210.8013458251953	-7.323224067687988	1481.004516601562	240.3738708496094	27.87433242797852	1355.661865234375	163.0932922363281	37.65707015991211	1140.685546875	131.3307189941406	-66.932373046875	1129.367553710938	155.6270294189453	51.17523193359375	879.0260009765625	209.9421081542969	25.00725936889648	873.6088256835938	125.2573776245117	45.7783317565918	1024.330444335938	125.8387603759766	48.52387237548828	692.5682373046875	225.6201477050781	44.75865936279297	781.1887817382812	140.2446441650391	70.8045654296875	784.239990234375	206.8959045410156	-278.4160461425781	1501.001342773438	457.4991455078125	-342.7046813964844	1432.103881835938	490.3173217773438	-394.2113952636719	1167.246459960938	472.1652221679688	-319.4878540039062	1137.723022460938	413.6343078613281	-285.5525512695312	911.4258422851562	560.9580688476562	-376.2300720214844	893.5509033203125	552.11572265625	-399.0659790039062	1090.109497070312	493.1360778808594	-254.1104583740234	728.3389892578125	568.99169921875	-270.2256469726562	804.456298828125	598.0454711914062	-344.6797790527344	795.1834716796875	586.9984741210938	-82.04042816162109	1701.999633789062	307.9561767578125	-153.3163757324219	1705.05859375	514.5878295898438	-59.71125793457031	1713.236083984375	487.9638061523438	-218.7149505615234	1688.166870117188	352.8415832519531	-7.821319580078125	949.4697875976562	235.4408111572266	-264.7828674316406	922.873291015625	503.61083984375	-144.2428283691406	966.5123901367188	528.888671875	19.80336761474609	998.0037841796875	363.7295532226562	78.89350128173828	533.466064453125	398.4340515136719	63.39162826538086	656.9810180664062	322.1253356933594	66.08635711669922	35.00627136230469	328.5810852050781	75.19878387451172	286.7885131835938	336.9895629882812	106.4343338012695	36.96050643920898	553.4659423828125	66.73275756835938	45.17611312866211	507.1513977050781	140.521240234375	35.25039291381836	428.9439086914062	-12.21771621704102	43.23403167724609	290.5375061035156	-211.9256286621094	480.5226745605469	490.9895324707031	-236.4963836669922	756.01220703125	516.1607666015625	-272.2180786132812	379.1573791503906	426.2262268066406	-335.3910217285156	36.74403762817383	188.3526153564453	-357.5447692871094	91.64350891113281	159.9713745117188	-425.1741027832031	70.38442230224609	226.2567901611328	-498.0234375	195.498046875	183.8457183837891	-500.9307250976562	252.1995697021484	139.6779937744141	
350	3.49	-270.3280639648438	1045.724243164062	359.8080749511719	-155.0829315185547	1044.3515625	243.0008087158203	-211.5710754394531	1103.390747070312	290.5516357421875	-66.70576477050781	1300.7529296875	456.1352233886719	-225.5679931640625	1247.740844726562	265.399169921875	-184.864501953125	1515.761840820312	290.4014282226562	-90.0404052734375	1426.588989257812	418.793212890625	-280.6367797851562	1379.250244140625	302.5954284667969	-121.3161315917969	1473.7841796875	216.0287017822266	0.8058848977088928	1481.960327148438	247.1745758056641	37.1446418762207	1356.699584960938	170.3170928955078	47.85659027099609	1141.848999023438	138.6389923095703	-57.01885604858398	1130.207275390625	161.3792572021484	61.07981109619141	880.2583618164062	217.5462951660156	36.25997161865234	874.7190551757812	132.4850769042969	56.44269943237305	1025.484497070312	133.2791900634766	59.17396545410156	693.8588256835938	233.1766815185547	56.24638748168945	782.43115234375	147.7665405273438	81.22949981689453	785.6394653320312	214.7955322265625	-272.9229736328125	1502.487426757812	460.8539428710938	-337.6596069335938	1433.758178710938	492.9507141113281	-389.7149353027344	1169.048583984375	474.5558776855469	-314.8472595214844	1139.327270507812	416.5351867675781	-282.4738159179688	912.8760986328125	564.145751953125	-373.1302490234375	895.2662353515625	554.5912475585938	-394.8885803222656	1091.932250976562	495.5172119140625	-251.5419464111328	729.7090454101562	572.1453857421875	-267.5957641601562	805.8678588867188	601.2645263671875	-341.965087890625	796.6830444335938	589.7183837890625	-74.89579010009766	1703.11376953125	313.1984252929688	-147.8988494873047	1706.573852539062	519.2426147460938	-54.0723762512207	1714.720581054688	493.3775329589844	-211.8954772949219	1689.33349609375	357.0021362304688	-0.8890604376792908	950.5711669921875	241.4402923583984	-259.9297180175781	924.1068725585938	507.6388244628906	-139.7595825195312	968.1333618164062	533.7102661132812	25.80400848388672	998.9985961914062	370.0679626464844	82.55885314941406	532.8114013671875	401.1774597167969	68.06523895263672	657.09765625	326.0298156738281	66.02943420410156	35.01544189453125	328.6465454101562	76.90440368652344	286.5027770996094	338.0141296386719	106.4518737792969	36.97604370117188	553.4830322265625	66.75619506835938	45.21521377563477	507.1484375	140.5508575439453	35.17766571044922	428.9046630859375	-12.29873943328857	43.11940765380859	290.5736694335938	-201.5726928710938	482.0035095214844	503.5886840820312	-229.9813079833984	757.7990112304688	523.0927124023438	-261.2531433105469	381.3410339355469	437.9951171875	-330.2323913574219	36.85204696655273	198.7397766113281	-349.6334228515625	94.62931060791016	169.7296905517578	-419.5613403320312	76.20848083496094	233.8797607421875	-486.3110046386719	204.2488861083984	190.3018035888672	-486.5700378417969	260.6824951171875	145.9065093994141	
